# xmcd CD database file
#
# Track frame offsets:
#	150
#	4546
#	26901
#	42196
#	62258
#	80595
#	96696
#	114566
#	134197
#	154458
#	172717
#
# Disc length: 2578 seconds
#
# Revision: 0
# Processed by: cddbd v1.5.1PL2 Copyright (c) Steve Scherf et al.
# Submitted via: CdAid (MTCDDB.DLL V2003.01.23)
#
DISCID=8f0a100b
DTITLE=Curtis Clay - A Chance I Gotta Take
DYEAR=2005
DGENRE=Country
TTITLE0=Intro (Country Soul)
TTITLE1=Smells Like Rain
TTITLE2=A Chance I Gotta Take
TTITLE3=Blacktop Dreams
TTITLE4=The Likes Of You
TTITLE5=Daddy's Girl
TTITLE6=A Little Overtime
TTITLE7=For Old Times' Sake
TTITLE8=I Need You
TTITLE9=Fallen Angel
TTITLE10=Seek
EXTD=YEAR: 2005 ID3G:  17 
EXTT0=
EXTT1=
EXTT2=
EXTT3=
EXTT4=
EXTT5=
EXTT6=
EXTT7=
EXTT8=
EXTT9=
EXTT10=
PLAYORDER=
